<?xml version="1.0" standalone="no"?>
<!DOCTYPE svg PUBLIC "-//W3C//DTD SVG 20010904//EN"
 "http://www.w3.org/TR/2001/REC-SVG-20010904/DTD/svg10.dtd">
<svg version="1.0" xmlns="http://www.w3.org/2000/svg"
 width="677.000000pt" height="677.000000pt" viewBox="0 0 677.000000 677.000000"
 preserveAspectRatio="xMidYMid meet">
<metadata>
Created by potrace 1.11, written by Peter Selinger 2001-2013
</metadata>
<g transform="translate(0.000000,677.000000) scale(0.100000,-0.100000)"
fill="#000000" stroke="none">
<path d="M3470 5621 l0 -121 78 -1 c42 0 93 -2 114 -5 l36 -3 6 57 c17 157 17
179 -2 184 -9 2 -65 6 -124 7 l-108 3 0 -121z"/>
<path d="M2709 5615 c-3 -2 -54 -22 -115 -44 -273 -98 -588 -283 -810 -476
-186 -163 -380 -391 -505 -598 -79 -129 -84 -112 52 -182 l88 -45 35 54 c19
29 41 67 50 84 8 16 48 74 89 128 280 376 649 649 1105 819 59 22 101 43 99
49 -3 6 -19 57 -37 114 -29 94 -38 110 -51 97z"/>
<path d="M4443 5533 c-4 -10 -24 -58 -44 -108 l-38 -90 127 -63 c124 -63 307
-178 387 -244 203 -167 383 -389 503 -616 46 -89 128 -291 139 -342 5 -28 9
-31 37 -26 27 4 158 39 193 51 9 3 8 17 -3 57 -42 140 -166 412 -235 516 -16
23 -43 63 -61 90 -190 283 -508 557 -838 722 -145 73 -158 77 -167 53z"/>
<path d="M965 3680 c-8 -25 -12 -48 -20 -111 -4 -30 -9 -69 -11 -87 -2 -20 1
-34 9 -37 6 -2 60 -6 120 -10 92 -5 107 -4 108 10 1 8 2 18 3 23 4 14 20 147
20 167 1 11 -3 20 -9 20 -5 1 -28 5 -50 9 -22 5 -49 10 -60 11 -11 2 -39 8
-62 13 -37 9 -43 7 -48 -8z"/>
<path d="M3549 3377 c-14 -12 -68 -61 -120 -109 -52 -48 -118 -109 -148 -136
l-53 -49 48 -45 c27 -24 81 -73 119 -108 39 -35 93 -85 120 -110 28 -26 84
-78 125 -116 42 -38 129 -118 195 -179 66 -60 129 -119 140 -130 12 -11 41
-38 66 -59 24 -21 71 -64 104 -95 112 -104 190 -176 289 -266 55 -49 109 -99
120 -110 12 -11 45 -41 73 -67 l52 -48 -52 -39 c-45 -34 -253 -161 -262 -161
-2 0 -50 -22 -107 -48 -57 -27 -146 -64 -198 -82 -52 -18 -96 -34 -98 -35 -2
-2 8 -42 51 -187 13 -44 19 -45 87 -18 28 11 77 29 108 39 62 21 274 122 362
171 30 18 108 67 174 111 l119 80 25 -23 c15 -13 31 -27 37 -33 7 -5 63 -57
125 -115 62 -58 118 -109 124 -115 44 -39 235 -214 252 -230 74 -71 136 -125
142 -126 4 -1 82 -2 175 -3 129 -1 167 1 168 11 1 7 2 77 3 156 l2 142 -61 60
c-34 33 -108 103 -166 155 -57 52 -135 124 -174 160 -171 157 -278 255 -292
265 -13 10 -2 28 73 121 82 102 160 215 226 328 28 47 28 50 11 60 -10 6 -57
32 -104 58 l-86 47 -45 -72 c-25 -40 -50 -82 -56 -93 -22 -42 -199 -264 -211
-264 -3 0 -24 17 -46 36 -55 50 -242 222 -284 261 -18 18 -70 65 -114 105 -44
40 -92 84 -107 98 -15 14 -71 66 -125 115 -55 50 -129 117 -165 151 -36 33
-99 91 -140 129 -41 38 -102 94 -135 124 -34 31 -110 101 -170 156 -60 55
-116 107 -125 115 -42 39 -45 40 -71 17z"/>
<path d="M5599 3358 c-6 -28 -22 -157 -23 -198 -1 -14 4 -25 9 -25 6 -1 26 -4
45 -8 139 -28 169 -31 175 -16 7 21 14 67 21 134 3 33 7 65 9 71 8 25 -16 33
-123 39 -61 4 -112 5 -113 3z"/>
<path d="M1103 2721 c-51 -14 -93 -31 -93 -37 0 -12 56 -187 70 -219 132 -301
266 -510 453 -705 99 -103 253 -234 350 -298 39 -26 82 -55 96 -64 14 -9 78
-44 141 -77 63 -32 128 -66 145 -75 16 -8 33 -12 36 -8 11 11 89 195 88 207 0
6 -51 35 -112 65 -275 136 -521 335 -703 570 -54 70 -204 306 -204 321 0 4
-17 45 -38 91 -21 45 -51 122 -66 171 -33 101 -24 98 -163 58z"/>
<path d="M3055 1280 c-1 -3 -6 -45 -10 -93 -3 -48 -8 -97 -10 -108 -6 -29 20
-36 140 -35 l110 1 -1 112 c0 62 -3 115 -5 117 -6 6 -220 12 -224 6z"/>
</g>
</svg>
